# xmcd
#
# Track frame offsets:
#	182
#	21052
#	41835
#	74632
#	96932
#	133392
#	160400
#	175735
#	227430
#	264152
#	292370
#	308337
#
# Disc length: 4634 seconds
#
# Revision: 1
# Processed by: cddbd v1.5.1PL0 Copyright (c) Steve Scherf et al.
# Submitted via: audiograbber 1.83.01
#
DISCID=aa12180c
DTITLE=Syria - Marrakesh Night Market
DYEAR=1900
DGENRE=Gothic Rock
TTITLE0=Mother Speaks
TTITLE1=Marrakesh Night Market, Part 1
TTITLE2=Elizabeth Of Glass
TTITLE3=Black October
TTITLE4=Marrakesh Night Market, Part 2
TTITLE5=Pray (Extended Remix)
TTITLE6=The Girl, The Gold Watch And Everything
TTITLE7=Visions Of The Sea (Jutland Mix)
TTITLE8=Spectrum No. 1
TTITLE9=Saxophone, Telescope And The Pilot's Death (Zero G Mix)
TTITLE10=Logic Of Empire
TTITLE11=Comfortably Numb/Some Kind Of Stranger
EXTD=
EXTT0=
EXTT1=
EXTT2=
EXTT3=
EXTT4=
EXTT5=
EXTT6=
EXTT7=
EXTT8=
EXTT9=
EXTT10=
EXTT11=
PLAYORDER=
